<mxfile host="app.diagrams.net" modified="2021-11-03T07:03:21.694Z" agent="5.0 (X11; Linux x86_64) AppleWebKit/537.36 (KHTML, like Gecko) Chrome/95.0.4638.54 Safari/537.36" etag="fXqOg-JEfOjEFIXcLsoo" version="15.6.6" type="github">
  <diagram id="rORjgk0GOdBi2ZtZiDBJ" name="Page-1">
    <mxGraphModel dx="1350" dy="744" grid="1" gridSize="10" guides="1" tooltips="1" connect="1" arrows="1" fold="1" page="1" pageScale="1" pageWidth="827" pageHeight="1169" math="0" shadow="0">
      <root>
        <mxCell id="0" />
        <mxCell id="1" parent="0" />
        <mxCell id="_LXkp8u61DvivmJY9k2K-13" value="WEB" style="rounded=1;whiteSpace=wrap;html=1;fontColor=#ffffff;strokeColor=#001DBC;fillColor=#0050ef;" vertex="1" parent="1">
          <mxGeometry x="215" y="50" width="380" height="60" as="geometry" />
        </mxCell>
        <mxCell id="_LXkp8u61DvivmJY9k2K-15" value="store" style="swimlane;fontColor=default;strokeColor=default;fillColor=default;" vertex="1" parent="1">
          <mxGeometry x="10" y="880" width="270" height="150" as="geometry" />
        </mxCell>
        <mxCell id="_LXkp8u61DvivmJY9k2K-12" value="mongoDB" style="shape=datastore;whiteSpace=wrap;html=1;fontSize=18;fillColor=default;strokeColor=default;fontColor=default;" vertex="1" parent="_LXkp8u61DvivmJY9k2K-15">
          <mxGeometry x="30" y="60" width="60" height="60" as="geometry" />
        </mxCell>
        <mxCell id="_LXkp8u61DvivmJY9k2K-29" value="Amazon S3" style="sketch=0;outlineConnect=0;fontColor=#232F3E;gradientColor=none;strokeColor=#ffffff;fillColor=#232F3E;dashed=0;verticalLabelPosition=middle;verticalAlign=bottom;align=center;html=1;whiteSpace=wrap;fontSize=10;fontStyle=1;spacing=3;shape=mxgraph.aws4.productIcon;prIcon=mxgraph.aws4.s3;" vertex="1" parent="_LXkp8u61DvivmJY9k2K-15">
          <mxGeometry x="180" y="40" width="80" height="100" as="geometry" />
        </mxCell>
        <mxCell id="_LXkp8u61DvivmJY9k2K-18" value="nginx" style="rounded=1;whiteSpace=wrap;html=1;fontColor=#ffffff;strokeColor=#B20000;fillColor=#e51400;" vertex="1" parent="1">
          <mxGeometry x="45" y="180" width="720" height="60" as="geometry" />
        </mxCell>
        <mxCell id="_LXkp8u61DvivmJY9k2K-23" value="SpringBoot-基础设置，仿真任务发布" style="swimlane;fontColor=default;strokeColor=default;fillColor=default;" vertex="1" parent="1">
          <mxGeometry x="20" y="360" width="380" height="110" as="geometry" />
        </mxCell>
        <mxCell id="_LXkp8u61DvivmJY9k2K-19" value="Java-serviceA-1" style="rounded=1;whiteSpace=wrap;html=1;fontColor=#ffffff;strokeColor=#001DBC;fillColor=#0050ef;" vertex="1" parent="_LXkp8u61DvivmJY9k2K-23">
          <mxGeometry x="10" y="40" width="80" height="60" as="geometry" />
        </mxCell>
        <mxCell id="_LXkp8u61DvivmJY9k2K-20" value="Java-serviceA-2" style="rounded=1;whiteSpace=wrap;html=1;fontColor=#ffffff;strokeColor=#B20000;fillColor=#e51400;" vertex="1" parent="_LXkp8u61DvivmJY9k2K-23">
          <mxGeometry x="144.5" y="40" width="80" height="60" as="geometry" />
        </mxCell>
        <mxCell id="_LXkp8u61DvivmJY9k2K-21" value="Java-serviceA-3" style="rounded=1;whiteSpace=wrap;html=1;fontColor=#ffffff;strokeColor=#B20000;fillColor=#e51400;" vertex="1" parent="_LXkp8u61DvivmJY9k2K-23">
          <mxGeometry x="270" y="40" width="80" height="60" as="geometry" />
        </mxCell>
        <mxCell id="_LXkp8u61DvivmJY9k2K-24" value="SpringBoot" style="swimlane;fontColor=default;strokeColor=default;fillColor=default;" vertex="1" parent="1">
          <mxGeometry x="360" y="730" width="450" height="380" as="geometry" />
        </mxCell>
        <mxCell id="_LXkp8u61DvivmJY9k2K-35" value="" style="swimlane;startSize=0;fontColor=#333333;strokeColor=#666666;fillColor=#E6E6E6;" vertex="1" parent="_LXkp8u61DvivmJY9k2K-24">
          <mxGeometry x="170" y="50" width="120" height="290" as="geometry" />
        </mxCell>
        <mxCell id="_LXkp8u61DvivmJY9k2K-26" value="Java-serviceB-2" style="rounded=1;whiteSpace=wrap;html=1;strokeColor=#666666;fillColor=#f5f5f5;gradientColor=#b3b3b3;fontColor=default;" vertex="1" parent="_LXkp8u61DvivmJY9k2K-35">
          <mxGeometry x="22.5" y="10" width="80" height="60" as="geometry" />
        </mxCell>
        <mxCell id="_LXkp8u61DvivmJY9k2K-33" value="仿 真-serviceB-2" style="rounded=1;whiteSpace=wrap;html=1;strokeColor=#666666;fillColor=#f5f5f5;gradientColor=#b3b3b3;fontColor=default;" vertex="1" parent="_LXkp8u61DvivmJY9k2K-35">
          <mxGeometry x="25" y="210" width="80" height="60" as="geometry" />
        </mxCell>
        <mxCell id="_LXkp8u61DvivmJY9k2K-50" value="" style="sketch=0;pointerEvents=1;shadow=0;dashed=0;html=1;strokeColor=#666666;fillColor=#f5f5f5;labelPosition=center;verticalLabelPosition=bottom;verticalAlign=top;outlineConnect=0;align=center;shape=mxgraph.office.concepts.folder;dashPattern=1 1;labelBackgroundColor=#ffffff;gradientColor=#b3b3b3;fontColor=default;" vertex="1" parent="_LXkp8u61DvivmJY9k2K-35">
          <mxGeometry x="30" y="116.5" width="72.5" height="57" as="geometry" />
        </mxCell>
        <mxCell id="_LXkp8u61DvivmJY9k2K-36" value="" style="swimlane;startSize=0;fontColor=default;strokeColor=default;fillColor=default;" vertex="1" parent="_LXkp8u61DvivmJY9k2K-24">
          <mxGeometry x="20" y="50" width="120" height="290" as="geometry" />
        </mxCell>
        <mxCell id="_LXkp8u61DvivmJY9k2K-37" value="Java-serviceB-1" style="rounded=1;whiteSpace=wrap;html=1;fontColor=#ffffff;strokeColor=#001DBC;fillColor=#0050ef;" vertex="1" parent="_LXkp8u61DvivmJY9k2K-36">
          <mxGeometry x="20" y="13" width="80" height="60" as="geometry" />
        </mxCell>
        <mxCell id="_LXkp8u61DvivmJY9k2K-38" value="仿 真-serviceB-1" style="rounded=1;whiteSpace=wrap;html=1;fontColor=default;strokeColor=#001DBC;fillColor=#0050ef;" vertex="1" parent="_LXkp8u61DvivmJY9k2K-36">
          <mxGeometry x="22.5" y="210" width="80" height="60" as="geometry" />
        </mxCell>
        <mxCell id="_LXkp8u61DvivmJY9k2K-46" value="" style="image;html=1;image=img/lib/clip_art/general/Full_Folder_128x128.png;shadow=0;dashed=0;labelBackgroundColor=#ffffff;fontColor=default;strokeColor=default;strokeWidth=2;fillColor=none;verticalAlign=top;" vertex="1" parent="_LXkp8u61DvivmJY9k2K-36">
          <mxGeometry x="22.5" y="110" width="80" height="80" as="geometry" />
        </mxCell>
        <mxCell id="_LXkp8u61DvivmJY9k2K-39" value="" style="swimlane;startSize=0;fontColor=default;strokeColor=default;fillColor=default;" vertex="1" parent="_LXkp8u61DvivmJY9k2K-24">
          <mxGeometry x="320" y="50" width="120" height="290" as="geometry" />
        </mxCell>
        <mxCell id="_LXkp8u61DvivmJY9k2K-27" value="Java-serviceB-3" style="rounded=1;whiteSpace=wrap;html=1;strokeColor=#001DBC;fillColor=#0050ef;fontColor=#ffffff;" vertex="1" parent="_LXkp8u61DvivmJY9k2K-39">
          <mxGeometry x="20" y="20" width="80" height="60" as="geometry" />
        </mxCell>
        <mxCell id="_LXkp8u61DvivmJY9k2K-34" value="仿 真-serviceB-3" style="rounded=1;whiteSpace=wrap;html=1;strokeColor=#001DBC;fillColor=#0050ef;fontColor=default;" vertex="1" parent="_LXkp8u61DvivmJY9k2K-39">
          <mxGeometry x="20" y="210" width="80" height="60" as="geometry" />
        </mxCell>
        <mxCell id="_LXkp8u61DvivmJY9k2K-47" value="" style="image;html=1;image=img/lib/clip_art/general/Full_Folder_128x128.png;shadow=0;dashed=0;labelBackgroundColor=#ffffff;fontColor=default;strokeColor=default;strokeWidth=2;fillColor=none;verticalAlign=top;" vertex="1" parent="_LXkp8u61DvivmJY9k2K-39">
          <mxGeometry x="20" y="105" width="80" height="80" as="geometry" />
        </mxCell>
        <mxCell id="_LXkp8u61DvivmJY9k2K-30" value="" style="outlineConnect=0;dashed=0;verticalLabelPosition=bottom;verticalAlign=top;align=center;html=1;shape=mxgraph.aws3.queue;fillColor=#D9A741;gradientColor=none;fontColor=default;strokeColor=default;" vertex="1" parent="1">
          <mxGeometry x="560" y="537" width="73.5" height="48" as="geometry" />
        </mxCell>
        <mxCell id="_LXkp8u61DvivmJY9k2K-31" value="" style="outlineConnect=0;dashed=0;verticalLabelPosition=bottom;verticalAlign=top;align=center;html=1;shape=mxgraph.aws3.queue;fillColor=#D9A741;gradientColor=none;fontColor=default;strokeColor=default;" vertex="1" parent="1">
          <mxGeometry x="280" y="590" width="73.5" height="48" as="geometry" />
        </mxCell>
      </root>
    </mxGraphModel>
  </diagram>
</mxfile>
